<svg width="32" height="32" viewBox="0 0 32 32" fill="none" xmlns="http://www.w3.org/2000/svg">
<rect width="32" height="32" rx="10" fill="#1D334A"/>
<path d="M17.8499 23.3516V16.3643C17.8499 14.876 17.6506 13.7363 17.2522 12.9453C16.6077 11.6797 15.7463 11.0469 14.6682 11.0469C13.5784 11.0469 12.717 11.6797 12.0842 12.9453C11.6858 13.7363 11.4866 14.876 11.4866 16.3643C11.4866 17.8643 11.6858 19.0039 12.0842 19.7832C12.6057 20.8027 13.3821 21.5557 14.4133 22.042L13.7542 23.3516H13.6663C12.3948 22.918 11.3635 21.957 10.5725 20.4688C10.01 19.4082 9.72876 18.04 9.72876 16.3643C9.72876 14.665 10.01 13.2969 10.5725 12.2598C11.551 10.4551 12.9163 9.55273 14.6682 9.55273C16.3909 9.55273 17.7444 10.4346 18.7288 12.1982C19.7131 10.4346 21.0667 9.55273 22.7893 9.55273C24.5413 9.55273 25.9065 10.4551 26.885 12.2598C27.4475 13.2969 27.7288 14.665 27.7288 16.3643C27.7288 18.04 27.4475 19.4082 26.885 20.4688C26.094 21.957 25.0627 22.918 23.7913 23.3516H23.7034L23.0442 22.042C24.0813 21.5498 24.8577 20.7969 25.3733 19.7832C25.7717 18.998 25.971 17.8584 25.971 16.3643C25.971 14.876 25.7717 13.7363 25.3733 12.9453C24.7346 11.6797 23.8733 11.0469 22.7893 11.0469C21.7053 11.0469 20.844 11.6797 20.2053 12.9453C19.8069 13.7363 19.6077 14.876 19.6077 16.3643V22.5605L17.9377 23.3516H17.8499Z" fill="white"/>
<path d="M4.36293 23.3516V16.3643C4.36293 14.6592 4.64418 13.291 5.20668 12.2598C6.19106 10.4551 7.55629 9.55273 9.30238 9.55273C11.0543 9.55273 12.4196 10.4551 13.3981 12.2598C13.9606 13.291 14.2418 14.6592 14.2418 16.3643C14.2418 18.04 13.9606 19.4082 13.3981 20.4688C12.6071 21.957 11.5758 22.918 10.3043 23.3516H10.2164L9.55727 22.042C10.6002 21.5498 11.3766 20.7969 11.8864 19.7832C12.2848 19.0039 12.484 17.8643 12.484 16.3643C12.484 14.876 12.2848 13.7363 11.8864 12.9453C11.2536 11.6797 10.3922 11.0469 9.30238 11.0469C8.21254 11.0469 7.35121 11.6797 6.7184 12.9453C6.31996 13.7363 6.12074 14.876 6.12074 16.3643V22.5605L4.45082 23.3516H4.36293Z" fill="white"/>
</svg>
