<svg width="48" height="48" viewBox="0 0 48 48" fill="none" xmlns="http://www.w3.org/2000/svg">
<rect y="-1.52588e-05" width="48" height="48" rx="5" fill="#1D334A"/>
<path d="M13.1479 39.0447V23.5174C13.1479 19.7283 13.7729 16.6879 15.0229 14.3963C17.2104 10.3859 20.2442 8.38065 24.1244 8.38065C28.0177 8.38065 31.0515 10.3859 33.226 14.3963C34.476 16.6879 35.101 19.7283 35.101 23.5174C35.101 27.2413 34.476 30.2817 33.226 32.6385C31.4682 35.9457 29.1765 38.0812 26.351 39.0447H26.1557L24.6908 36.1346C27.0086 35.0408 28.7338 33.3676 29.8666 31.115C30.752 29.3832 31.1948 26.8507 31.1948 23.5174C31.1948 20.2101 30.752 17.6775 29.8666 15.9197C28.4604 13.1072 26.5463 11.701 24.1244 11.701C21.7026 11.701 19.7885 13.1072 18.3823 15.9197C17.4968 17.6775 17.0541 20.2101 17.0541 23.5174V37.2869L13.3432 39.0447H13.1479Z" fill="white"/>
</svg>
